<?xml version="1.0" standalone="no"?>
<!DOCTYPE svg PUBLIC "-//W3C//DTD SVG 1.1//EN" "http://www.w3.org/Graphics/SVG/1.1/DTD/svg11.dtd" >
<svg>
<metadata>
Created by FontForge 20110222 at Mon Mar  7 03:49:49 2011
 By www-data
Special edition for the use of Marcel Rathgeber. Font by Jonathan Paterson. E-mail: paterson@mlink.net
</metadata>
<defs>
<font id="BoomBox-2" horiz-adv-x="840" >
  <font-face 
    font-family="BoomBox 2"
    font-weight="400"
    font-stretch="normal"
    units-per-em="1000"
    panose-1="2 0 5 3 0 0 0 0 0 0"
    ascent="800"
    descent="-200"
    x-height="865"
    cap-height="865"
    bbox="-265 -117 1632 1116"
    underline-thickness="19"
    underline-position="-137"
    unicode-range="U+0020-2122"
  />
    <missing-glyph />
    <glyph glyph-name="space" unicode=" " horiz-adv-x="348" 
 />
    <glyph glyph-name="exclam" unicode="!" horiz-adv-x="343" 
d="M268 337h-193v528h193v-528zM268 0h-193v192h193v-192z" />
    <glyph glyph-name="quotedbl" unicode="&#x22;" horiz-adv-x="522" 
d="M502 577h-193v288h193v-288zM213 577h-193v288h193v-288z" />
    <glyph glyph-name="numbersign" unicode="#" horiz-adv-x="1677" 
d="M1632 500c0 -108 -84 -192 -192 -192h-192c-107 0 -193 86 -193 192v173c0 108 84 192 193 192h192c108 0 192 -84 192 -192v-173zM940 0h-192c-53 0 -91 24 -133 87l-331 494c-5 7 -11 11 -17 11v-592h-192v865h192c55 0 92 -24 133 -86l330 -494c6 -8 12 -12 18 -12
v592h192v-865zM1440 519v135c0 10 -9 19 -19 19h-154c-11 0 -19 -8 -19 -19v-135c0 -12 7 -19 19 -19h154c11 0 19 8 19 19z" />
    <glyph glyph-name="dollar" unicode="$" 
d="M757 269c0 -108 -84 -192 -193 -192h-48v-77h-192v77h-240v192h461c13 0 14 1 19 29v15c0 12 -8 20 -19 20h-269c-108 0 -192 84 -192 192v71c0 108 84 192 192 192h48v77h192v-77h145v-192h-366c-14 0 -15 -6 -20 -33c2 -31 3 -38 20 -38h269c107 0 193 -85 193 -192
v-64z" />
    <glyph glyph-name="percent" unicode="%" 
d="M304 596h-192v192h192v-192zM762 865l-492 -865h-192l491 865h193zM727 67h-192v193h192v-193z" />
    <glyph glyph-name="ampersand" unicode="&#x26;" horiz-adv-x="870" 
d="M850 337h-106v-145c0 -106 -86 -192 -193 -192h-288c-107 0 -193 86 -193 192v145c0 40 14 79 36 96c-14 12 -36 41 -36 96v144c0 108 84 192 192 192h180c107 0 193 -85 193 -192v-58h-192c0 51 0 58 -19 58h-142c-10 0 -20 -9 -20 -19v-106c0 -12 7 -19 19 -19h66v-192
h-65c-13 0 -20 -7 -20 -20v-105c0 -13 9 -20 19 -20h250c13 0 20 7 20 20v105c0 12 -8 20 -19 20h-90v192h408v-192z" />
    <glyph glyph-name="quotesingle" unicode="'" horiz-adv-x="234" 
d="M214 577h-194v288h194v-288z" />
    <glyph glyph-name="parenleft" unicode="(" horiz-adv-x="375" 
d="M310 0c-98 0 -135 7 -184 56c-37 38 -56 83 -56 136v481c0 108 84 192 192 192h48v-192h-16c-23 0 -32 -5 -32 -19v-442c0 -20 7 -20 48 -20v-192z" />
    <glyph glyph-name="parenright" unicode=")" horiz-adv-x="375" 
d="M305 192c0 -106 -85 -192 -192 -192h-48v192c42 0 48 0 48 20v442c0 13 -1 14 -32 19h-16v192c98 0 135 -7 184 -56c37 -37 56 -83 56 -136v-481z" />
    <glyph glyph-name="asterisk" unicode="*" horiz-adv-x="312" 
d="M292 730l-39 -40v-56h-57l-39 -40l-40 40h-56v56l-41 40l40 39v57h56l40 39l39 -39h57v-57z" />
    <glyph glyph-name="plus" unicode="+" 
d="M683 310h-167v-155h-192v155h-167v193h167v157h192v-157h167v-193z" />
    <glyph glyph-name="comma" unicode="," horiz-adv-x="264" 
d="M214 0l-97 -96v96h-97v192h194v-192z" />
    <glyph glyph-name="hyphen" unicode="-" horiz-adv-x="424" 
d="M404 337h-384v192h384v-192z" />
    <glyph glyph-name="period" unicode="." horiz-adv-x="234" 
d="M214 0h-194v192h194v-192z" />
    <glyph glyph-name="slash" unicode="/" horiz-adv-x="663" 
d="M673 865l-491 -865h-192l491 865h192z" />
    <glyph glyph-name="zero" unicode="0" 
d="M756 192c0 -106 -86 -192 -193 -192h-288c-107 0 -192 85 -192 192v481c0 108 84 192 192 192h288c107 0 193 -85 193 -192v-481zM563 212v442c0 10 -9 19 -19 19h-250c-11 0 -19 -8 -19 -19v-442c0 -13 9 -20 19 -20h250c13 0 19 7 19 20z" />
    <glyph glyph-name="one" unicode="1" 
d="M404 666l-138 -37l-49 186l187 50h192v-865h-192v666z" />
    <glyph glyph-name="two" unicode="2" 
d="M756 0h-673v337c0 107 86 192 192 192h269c11 0 19 8 19 19v106c0 10 -9 19 -19 19h-461v192h480c107 0 193 -85 193 -192v-144c0 -108 -84 -192 -193 -192h-269c-13 0 -19 -7 -19 -20v-125h481v-192z" />
    <glyph glyph-name="three" unicode="3" 
d="M757 192c0 -106 -86 -192 -193 -192h-481v192h461c13 0 20 7 20 20v105c0 12 -8 20 -19 20h-414v192h413c5 0 20 5 20 19v106c0 10 -9 19 -19 19h-462v192h480c108 0 194 -85 194 -192v-144c0 -43 -14 -79 -37 -96c21 -18 37 -59 37 -96v-145z" />
    <glyph glyph-name="four" unicode="4" 
d="M756 240h-96v-240h-192v240h-385c0 60 5 105 20 212l61 413h192l-61 -432h173v336h192v-336h96v-193z" />
    <glyph glyph-name="five" unicode="5" 
d="M756 192c0 -106 -86 -192 -193 -192h-480v192h461c13 0 19 7 19 20v105c0 12 -8 20 -19 20h-461v528h625v-192h-433v-144h288c107 0 193 -85 193 -192v-145z" />
    <glyph glyph-name="six" unicode="6" 
d="M756 192c0 -106 -86 -192 -193 -192h-288c-107 0 -192 85 -192 192v481c0 108 84 192 192 192h385v-192h-366c-11 0 -19 -8 -19 -19v-125h288c107 0 193 -85 193 -192v-145zM563 212v105c0 12 -8 20 -19 20h-250c-13 0 -19 -7 -19 -20v-105c0 -13 9 -20 19 -20h250
c13 0 19 7 19 20z" />
    <glyph glyph-name="seven" unicode="7" 
d="M756 721c0 -57 -3 -66 -36 -136l-273 -585h-212l313 673h-465v192h673v-144z" />
    <glyph glyph-name="eight" unicode="8" 
d="M757 192c0 -106 -86 -192 -193 -192h-288c-107 0 -193 86 -193 192v145c0 44 12 77 36 96c-14 12 -36 41 -36 96v144c0 108 84 192 192 192h288c108 0 194 -85 194 -192v-144c0 -42 -13 -77 -37 -96c21 -18 37 -59 37 -96v-145zM564 654c0 10 -9 19 -19 19h-250
c-10 0 -20 -9 -20 -19v-106c0 -12 7 -19 19 -19h250c11 0 19 8 19 19zM564 212v105c0 12 -8 20 -19 20h-250c-11 0 -20 -9 -20 -20v-105c0 -13 9 -20 19 -20h250c13 0 20 7 20 20z" />
    <glyph glyph-name="nine" unicode="9" 
d="M757 192c0 -106 -85 -192 -192 -192h-193v192h173c13 0 20 7 20 20v125h-288c-108 0 -194 85 -194 192v144c0 108 84 192 193 192h288c107 0 193 -85 193 -192v-481zM565 654c0 10 -9 19 -19 19h-250c-10 0 -20 -9 -20 -19v-106c0 -12 7 -19 19 -19h250c11 0 19 8 19 19z
" />
    <glyph glyph-name="colon" unicode=":" horiz-adv-x="283" 
d="M233 337h-193v192h193v-192zM233 0h-193v192h193v-192z" />
    <glyph glyph-name="semicolon" unicode=";" horiz-adv-x="283" 
d="M233 337h-193v192h193v-192zM233 0l-96 -96v96h-97v192h193v-192z" />
    <glyph glyph-name="less" unicode="&#x3c;" horiz-adv-x="458" 
d="M468 0h-192l-266 464l228 401h193l-228 -401z" />
    <glyph glyph-name="equal" unicode="=" 
d="M612 505h-385v192h385v-192zM612 168h-385v193h385v-193z" />
    <glyph glyph-name="greater" unicode="&#x3e;" horiz-adv-x="457" 
d="M447 464l-263 -464h-194l265 464l-229 401h192z" />
    <glyph glyph-name="question" unicode="?" horiz-adv-x="744" 
d="M694 577c0 -108 -84 -192 -192 -192h-77c-13 0 -19 -7 -19 -20v-77h-193v97c0 107 86 192 192 192h77c5 0 20 5 20 19v58c0 10 -9 19 -19 19h-250c-19 0 -19 -16 -19 -48h-194c0 98 7 135 56 184c37 37 83 56 137 56h288c107 0 193 -85 193 -192v-96zM405 0h-192v192h192
v-192z" />
    <glyph glyph-name="at" unicode="@" horiz-adv-x="957" 
d="M843 427c0 202 -162 364 -364 364c-204 0 -365 -161 -365 -364c0 -58 13 -114 40 -167l192 412c27 58 71 87 133 87c58 0 105 -31 132 -87l191 -410c27 53 41 108 41 165zM907 427c0 -237 -188 -428 -428 -428c-239 0 -429 189 -429 428c0 240 191 428 428 428
c239 0 429 -189 429 -428zM776 217h-383l91 194h37l-24 54c-3 7 -8 11 -17 11s-15 -4 -18 -11l-116 -248h-165c69 -97 178 -154 297 -154c120 0 228 56 298 154z" />
    <glyph glyph-name="A" unicode="A" horiz-adv-x="984" 
d="M994 0h-697l90 192h307l-184 393c-3 7 -9 11 -17 11c-9 0 -15 -4 -18 -11l-273 -585h-212l369 792c27 58 71 87 133 87c58 0 105 -31 132 -87z" />
    <glyph glyph-name="B" unicode="B" horiz-adv-x="1006" 
d="M936 192c0 -106 -85 -192 -192 -192h-674v529h654c5 0 20 5 20 19v106c0 10 -9 19 -19 19h-655v192h673c107 0 193 -85 193 -192v-144c0 -45 -12 -77 -36 -96c20 -16 36 -60 36 -96v-145zM744 317c0 5 -5 20 -19 20h-463v-145h462c13 0 19 7 19 20z" />
    <glyph glyph-name="C" unicode="C" horiz-adv-x="849" 
d="M829 0h-529c-159 0 -240 144 -240 433c0 294 75 432 240 432h529v-192h-509c-43 0 -64 -79 -64 -240c0 -168 20 -241 64 -241h509v-192z" />
    <glyph glyph-name="D" unicode="D" horiz-adv-x="1005" 
d="M940 433c0 -286 -82 -433 -240 -433h-625v865h625c165 0 240 -134 240 -432zM744 433c0 136 -12 240 -64 240h-413v-481h413c44 0 64 77 64 241z" />
    <glyph glyph-name="E" unicode="E" horiz-adv-x="1005" 
d="M936 0h-673c-107 0 -193 86 -193 192v481c0 108 84 192 192 192h674v-192h-654c-10 0 -20 -9 -20 -19v-125h674v-192h-674v-125c0 -13 9 -20 19 -20h655v-192z" />
    <glyph glyph-name="F" unicode="F" horiz-adv-x="885" 
d="M840 337h-577v-337h-193v673c0 108 84 192 192 192h578v-192h-558c-10 0 -20 -9 -20 -19v-125h578v-192z" />
    <glyph glyph-name="G" unicode="G" horiz-adv-x="1000" 
d="M930 192c0 -106 -85 -192 -192 -192h-481c-107 0 -192 85 -192 192v481c0 108 84 192 192 192h673v-192h-654c-11 0 -19 -8 -19 -19v-442c0 -13 9 -20 19 -20h443c13 0 19 7 19 20v125h-193v192h385v-337z" />
    <glyph glyph-name="H" unicode="H" horiz-adv-x="1015" 
d="M940 0h-192v865h192v-865zM652 337h-385v-337h-192v865h192v-336h385v-192z" />
    <glyph glyph-name="I" unicode="I" horiz-adv-x="342" 
d="M267 0h-192v865h192v-865z" />
    <glyph glyph-name="J" unicode="J" horiz-adv-x="889" 
d="M814 96c0 -120 -72 -192 -192 -192h-405c-112 0 -192 79 -192 192v183h192v-135c0 -34 18 -50 58 -50h289c40 0 58 15 58 50v721h192v-769z" />
    <glyph glyph-name="K" unicode="K" horiz-adv-x="978" 
d="M983 0h-225l-144 317c-6 15 -10 20 -19 20h-327v-337h-193v865h192v-336h260c8 0 11 3 19 19l163 317h226l-177 -336c-11 -22 -18 -32 -29 -40c42 -32 69 -72 105 -152z" />
    <glyph glyph-name="L" unicode="L" horiz-adv-x="829" 
d="M839 0h-577c-107 0 -192 85 -192 192v673h192v-653c0 -13 9 -20 19 -20h558v-192z" />
    <glyph glyph-name="M" unicode="M" horiz-adv-x="1008" 
d="M938 0h-192v654c0 10 -9 19 -19 19h-106c-11 0 -19 -8 -19 -19v-654h-193v654c0 10 -9 19 -19 19h-106c-11 0 -19 -8 -19 -19v-654h-193v673c0 108 84 192 192 192h144c45 0 78 -12 96 -35c18 21 56 35 97 35h144c107 0 193 -85 193 -192v-673z" />
    <glyph glyph-name="N" unicode="N" horiz-adv-x="909" 
d="M839 0h-192v613c0 53 -56 74 -193 74c-126 0 -192 -16 -192 -74v-613h-192v633c0 174 117 250 384 250c260 0 385 -81 385 -250v-633z" />
    <glyph glyph-name="O" unicode="O" horiz-adv-x="995" 
d="M930 433c0 -286 -82 -433 -240 -433h-385c-159 0 -240 144 -240 433c0 294 75 432 240 432h385c165 0 240 -134 240 -432zM736 433c0 163 -21 240 -65 240h-346c-50 0 -66 -58 -66 -240c0 -164 21 -241 66 -241h346c44 0 65 78 65 241z" />
    <glyph glyph-name="P" unicode="P" horiz-adv-x="967" 
d="M922 529c0 -106 -85 -192 -192 -192h-462v-337h-193v529h634c11 0 21 9 21 19v106c0 13 -7 19 -20 19h-635v192h654c107 0 193 -85 193 -192v-144z" />
    <glyph glyph-name="Q" unicode="Q" horiz-adv-x="985" 
d="M925 433c0 -237 -52 -375 -162 -419l52 -110h-213l-44 96h-258c-159 0 -240 144 -240 433c0 294 75 432 240 432h385c165 0 240 -134 240 -432zM731 433c0 163 -21 240 -65 240h-346c-44 0 -66 -80 -66 -240c0 -164 21 -241 66 -241h149l-45 96h211l43 -93
c36 16 53 91 53 238z" />
    <glyph glyph-name="R" unicode="R" horiz-adv-x="1025" 
d="M970 0h-192l-48 317c-3 13 -9 20 -20 20h-442v-337h-193v529h634c11 0 21 9 21 19v106c0 13 -7 19 -20 19h-635v192h654c107 0 193 -85 193 -192v-144c0 -43 -14 -79 -37 -96c17 -15 29 -47 36 -96z" />
    <glyph glyph-name="S" unicode="S" horiz-adv-x="985" 
d="M925 192c0 -106 -85 -192 -192 -192h-673v192h654c13 0 19 7 19 20v105c0 5 -5 20 -19 20h-462c-108 0 -192 84 -192 192v144c0 108 84 192 192 192h763v-192h-744c-11 0 -19 -8 -19 -19v-106c0 -12 7 -19 19 -19h462c105 0 192 -87 192 -192v-145z" />
    <glyph glyph-name="T" unicode="T" horiz-adv-x="845" 
d="M855 673h-865v192h865v-192zM519 0h-192v577h192v-577z" />
    <glyph glyph-name="U" unicode="U" horiz-adv-x="1006" 
d="M936 232c0 -162 -153 -250 -433 -250c-290 0 -433 83 -433 250v633h192v-614c0 -61 144 -73 240 -73c156 0 241 26 241 73v614h193v-633z" />
    <glyph glyph-name="V" unicode="V" horiz-adv-x="1004" 
d="M1014 865l-370 -792c-26 -55 -77 -86 -142 -86c-67 0 -115 29 -142 86l-370 792h221l273 -584c4 -8 10 -12 17 -12c8 0 14 4 17 12l274 584h222z" />
    <glyph glyph-name="W" unicode="W" horiz-adv-x="1465" 
d="M1475 865l-369 -792c-27 -57 -71 -86 -133 -86c-61 0 -105 29 -132 86l-108 231l-108 -231c-27 -57 -71 -86 -132 -86c-62 0 -106 29 -133 86l-370 792h211l273 -584c3 -8 9 -12 18 -12c7 0 13 4 17 12l118 251l-157 333h212l50 -106l50 106h212l-156 -333l117 -251
c4 -8 10 -12 17 -12c8 0 14 4 18 12l273 584h212z" />
    <glyph glyph-name="X" unicode="X" horiz-adv-x="884" 
d="M889 0h-192l-145 317c-7 15 -11 20 -19 20h-183c-7 0 -13 -6 -19 -20l-144 -317h-192l153 337c46 99 60 124 97 152c-9 5 -14 9 -29 40l-173 336h205l160 -317c7 -16 9 -16 28 -20c32 2 35 3 41 20l164 317h200l-173 -336c-12 -22 -15 -28 -29 -40c34 -25 51 -54 96 -152
z" />
    <glyph glyph-name="Y" unicode="Y" horiz-adv-x="957" 
d="M912 577c0 -159 -144 -240 -433 -240c-348 0 -434 104 -434 240v288h193v-269c0 -44 80 -63 262 -63c145 0 218 21 218 63v269h194v-288zM574 0h-192v240h192v-240z" />
    <glyph glyph-name="Z" unicode="Z" horiz-adv-x="946" 
d="M906 0h-866v192c0 55 24 92 86 133l494 331c9 6 13 12 13 17h-593v192h866v-192c0 -54 -25 -92 -86 -133l-495 -330c-7 -5 -11 -11 -12 -18h593v-192z" />
    <glyph glyph-name="bracketleft" unicode="[" horiz-adv-x="370" 
d="M315 0h-240v865h240v-192h-48v-481h48v-192z" />
    <glyph glyph-name="backslash" unicode="\" horiz-adv-x="664" 
d="M674 0h-192l-492 865h192z" />
    <glyph glyph-name="bracketright" unicode="]" horiz-adv-x="370" 
d="M295 0h-240v192h48v481h-48v192h240v-865z" />
    <glyph glyph-name="asciicircum" unicode="^" horiz-adv-x="574" 
d="M524 267l-236 134l-238 -135v192l238 135l236 -134v-192z" />
    <glyph glyph-name="underscore" unicode="_" horiz-adv-x="1" 
d="M265 0h-530v192h530v-192z" />
    <glyph glyph-name="grave" unicode="`" horiz-adv-x="188" 
d="M188 893l-188 108v96l188 -108v-96z" />
    <glyph glyph-name="a" unicode="a" horiz-adv-x="984" 
d="M648 288l-138 306c-4 8 -10 12 -17 12c-8 0 -14 -4 -18 -12l-139 -306h312zM994 0h-211l-67 144h-447l-67 -144h-212l369 792c27 58 71 87 133 87c59 0 106 -31 132 -87z" />
    <glyph glyph-name="b" unicode="b" horiz-adv-x="909" 
d="M844 192c0 -106 -85 -192 -192 -192h-577v865h577c105 0 192 -87 192 -192v-144c0 -42 -13 -78 -36 -96c20 -16 36 -60 36 -96v-145zM652 548v106c0 13 -7 19 -20 19h-365v-144h365c5 0 20 5 20 19zM652 212v105c0 13 -7 20 -20 20h-365v-145h365c13 0 20 7 20 20z" />
    <glyph glyph-name="c" unicode="c" horiz-adv-x="855" 
d="M835 0h-577c-107 0 -193 86 -193 192v481c0 108 84 192 192 192h578v-192h-558c-10 0 -20 -9 -20 -19v-442c0 -13 9 -20 19 -20h559v-192z" />
    <glyph glyph-name="d" unicode="d" horiz-adv-x="909" 
d="M844 192c0 -106 -85 -192 -192 -192h-577v865h577c105 0 192 -87 192 -192v-481zM652 212v442c0 13 -7 19 -20 19h-365v-481h365c13 0 20 7 20 20z" />
    <glyph glyph-name="e" unicode="e" horiz-adv-x="899" 
d="M844 0h-769v865h769v-192h-577v-144h529v-192h-529v-145h577v-192z" />
    <glyph glyph-name="f" unicode="f" horiz-adv-x="836" 
d="M796 673h-529v-144h481v-192h-481v-337h-192v865h721v-192z" />
    <glyph glyph-name="g" unicode="g" horiz-adv-x="937" 
d="M882 192c0 -106 -85 -192 -192 -192h-433c-107 0 -192 85 -192 192v481c0 108 84 192 192 192h577v-192h-558c-11 0 -19 -8 -19 -19v-442c0 -13 9 -20 19 -20h394c13 0 20 7 20 20v125h-193v192h385v-337z" />
    <glyph glyph-name="h" unicode="h" horiz-adv-x="919" 
d="M844 0h-192v337h-385v-337h-192v865h192v-336h385v336h192v-865z" />
    <glyph glyph-name="i" unicode="i" horiz-adv-x="342" 
d="M267 0h-192v865h192v-865z" />
    <glyph glyph-name="j" unicode="j" horiz-adv-x="580" 
d="M510 96c0 -108 -84 -192 -192 -192h-308v192h289c11 0 19 8 19 19v750h192v-769z" />
    <glyph glyph-name="k" unicode="k" horiz-adv-x="793" 
d="M798 0h-198l-106 317c-5 13 -14 20 -29 20h-202v-337h-193v865h192v-336h106c8 0 14 6 19 19l135 317h204l-151 -351c25 0 63 -38 76 -76z" />
    <glyph glyph-name="l" unicode="l" horiz-adv-x="739" 
d="M749 0h-674v865h192v-673h482v-192z" />
    <glyph glyph-name="m" unicode="m" horiz-adv-x="1111" 
d="M1036 0h-192v592c-7 0 -12 -4 -17 -11l-139 -210c-42 -62 -80 -86 -133 -86c-54 0 -93 26 -132 86l-139 210c-5 7 -10 11 -17 11v-592h-192v865h192c55 0 93 -25 133 -86l138 -210c5 -7 10 -11 17 -11s13 4 18 11l138 210c42 62 78 86 133 86h192v-865z" />
    <glyph glyph-name="n" unicode="n" horiz-adv-x="1015" 
d="M940 0h-192c-53 0 -91 24 -133 87l-331 494c-5 7 -11 11 -17 11v-592h-192v865h192c55 0 92 -24 133 -86l330 -494c6 -8 12 -12 18 -12v592h192v-865z" />
    <glyph glyph-name="o" unicode="o" horiz-adv-x="995" 
d="M930 192c0 -106 -85 -192 -192 -192h-481c-107 0 -192 85 -192 192v481c0 108 84 192 192 192h481c108 0 192 -84 192 -192v-481zM738 212v442c0 10 -9 19 -19 19h-443c-11 0 -19 -8 -19 -19v-442c0 -13 9 -20 19 -20h443c13 0 19 7 19 20z" />
    <glyph glyph-name="p" unicode="p" horiz-adv-x="866" 
d="M826 529c0 -108 -84 -192 -193 -192h-365v-337h-193v865h557c108 0 194 -85 194 -192v-144zM633 656c0 9 -9 17 -19 17h-347v-144h346c11 0 19 8 19 19z" />
    <glyph glyph-name="q" unicode="q" horiz-adv-x="996" 
d="M931 192c0 -93 -66 -172 -158 -189l48 -99h-213l-44 96h-306c-107 0 -193 86 -193 192v481c0 108 84 192 192 192h481c107 0 193 -85 193 -192v-481zM739 654c0 10 -9 19 -19 19h-443c-10 0 -20 -9 -20 -19v-442c0 -13 9 -20 19 -20h198l-46 96h212l45 -96h34
c13 0 19 7 19 20z" />
    <glyph glyph-name="r" unicode="r" horiz-adv-x="914" 
d="M844 0h-192v317c0 13 -7 20 -20 20h-365v-337h-192v865h577c105 0 192 -87 192 -192v-144c0 -42 -13 -78 -36 -96c20 -16 36 -60 36 -96v-337zM652 548v106c0 13 -7 19 -20 19h-365v-144h365c5 0 20 5 20 19z" />
    <glyph glyph-name="s" unicode="s" horiz-adv-x="889" 
d="M829 192c0 -106 -85 -192 -192 -192h-577v192h557c13 0 20 7 20 20v105c0 13 -7 20 -20 20h-365c-108 0 -192 84 -192 192v144c0 108 84 192 192 192h481v-192h-462c-11 0 -19 -8 -19 -19v-106c0 -12 7 -19 19 -19h366c105 0 192 -87 192 -192v-145z" />
    <glyph glyph-name="t" unicode="t" horiz-adv-x="845" 
d="M855 673h-336v-673h-192v673h-337v192h865v-192z" />
    <glyph glyph-name="u" unicode="u" horiz-adv-x="909" 
d="M839 192c0 -106 -85 -192 -192 -192h-385c-107 0 -192 85 -192 192v673h192v-653c0 -13 9 -20 19 -20h346c13 0 20 7 20 20v653h192v-673z" />
    <glyph glyph-name="v" unicode="v" horiz-adv-x="791" 
d="M801 865l-283 -792c-21 -57 -62 -86 -123 -86s-102 29 -123 86l-282 792h211l177 -536c2 -8 8 -12 17 -12s15 4 18 12l177 536h211z" />
    <glyph glyph-name="w" unicode="w" horiz-adv-x="1254" 
d="M1264 865l-260 -792c-16 -50 -79 -86 -146 -86c-63 0 -107 29 -133 86l-107 231l-108 -231c-27 -57 -72 -86 -133 -86c-64 0 -130 30 -147 86l-240 792h211l160 -584c2 -8 8 -12 17 -12c7 0 13 4 17 12l89 193c26 56 73 87 133 87c58 0 106 -32 132 -87l89 -193
c3 -8 9 -12 17 -12s14 4 17 12l179 584h213z" />
    <glyph glyph-name="x" unicode="x" horiz-adv-x="743" 
d="M748 0h-211l-163 285l-5 23l-6 -24l-162 -284h-206l263 464l-228 401h207l120 -213l12 -37l10 37l121 213h207l-223 -401z" />
    <glyph glyph-name="y" unicode="y" horiz-adv-x="801" 
d="M761 577c0 -163 -82 -237 -264 -237v-340h-192v339c-189 0 -265 68 -265 238v288h193v-269c0 -44 51 -63 168 -63c119 0 168 18 168 63v269h192v-288z" />
    <glyph glyph-name="z" unicode="z" horiz-adv-x="811" 
d="M766 0h-721v192c0 43 24 78 86 133l379 331c8 6 12 11 12 17h-477v192h721v-192c0 -52 -15 -69 -87 -133l-379 -330c-7 -7 -11 -13 -11 -18h477v-192z" />
    <glyph glyph-name="braceleft" unicode="{" horiz-adv-x="381" 
d="M331 0c-98 0 -135 7 -184 56c-37 38 -56 83 -56 136v145h-51v192h51v144c0 108 84 192 192 192h48v-192h-16c-23 0 -32 -5 -32 -19v-442c0 -20 7 -20 48 -20v-192z" />
    <glyph glyph-name="bar" unicode="|" horiz-adv-x="342" 
d="M267 0h-192v865h192v-865z" />
    <glyph glyph-name="braceright" unicode="}" horiz-adv-x="379" 
d="M339 337h-49v-145c0 -106 -85 -192 -192 -192h-48v192c42 0 48 0 48 20v442c0 13 -1 14 -32 19h-16v192c98 0 135 -7 184 -56c37 -37 56 -83 56 -136v-144h49v-192z" />
    <glyph glyph-name="asciitilde" unicode="~" horiz-adv-x="792" 
d="M752 382c-52 -83 -148 -138 -238 -138c-35 0 -80 22 -133 67s-98 67 -133 67c-81 0 -128 -41 -208 -138v192c101 101 165 138 238 138c35 0 80 -22 133 -67s98 -67 133 -67c89 0 161 47 208 138v-192z" />
    <glyph glyph-name="quotesinglbase" unicode="&#x201a;" horiz-adv-x="264" 
d="M244 0l-97 -96v96h-97v192h194v-192z" />
    <glyph glyph-name="florin" unicode="&#x192;" horiz-adv-x="450" 
d="M385 337h-64v-225c0 -105 -87 -192 -192 -192h-64v192c60 0 64 0 64 20v205h-64v192h63v144c0 108 84 192 193 192h64v-192c-59 0 -65 -1 -65 -19v-125h65v-192z" />
    <glyph glyph-name="quotedblbase" unicode="&#x201e;" horiz-adv-x="634" 
d="M614 0l-97 -96v96h-97v192h194v-192zM243 0l-96 -96v96h-97v192h193v-192z" />
    <glyph glyph-name="ellipsis" unicode="&#x2026;" horiz-adv-x="1064" 
d="M1014 0h-194v192h194v-192zM613 0h-193v192h193v-192zM213 0h-193v192h193v-192z" />
    <glyph glyph-name="dagger" unicode="&#x2020;" horiz-adv-x="580" 
d="M530 497h-147v-407h-192v407h-141v192h141v126h192v-126h147v-192z" />
    <glyph glyph-name="daggerdbl" unicode="&#x2021;" horiz-adv-x="580" 
d="M530 187h-147v-97h-192v97h-141v192h141v158h-141v192h141v86h192v-86h147v-192h-147v-158h147v-192z" />
    <glyph glyph-name="circumflex" unicode="&#x2c6;" horiz-adv-x="237" 
d="M237 885l-118 67l-119 -69v96l119 69l118 -67v-96z" />
    <glyph glyph-name="perthousand" unicode="&#x2030;" horiz-adv-x="1116" 
d="M1038 67h-193v193h193v-193zM304 596h-192v192h192v-192zM763 865l-492 -865h-193l491 865h194zM728 67h-193v193h193v-193z" />
    <glyph glyph-name="Scaron" unicode="&#x160;" horiz-adv-x="985" 
d="M925 192c0 -106 -85 -192 -192 -192h-673v192h654c13 0 19 7 19 20v105c0 5 -5 20 -19 20h-462c-108 0 -192 84 -192 192v144c0 108 84 192 192 192h673v-192h-654c-11 0 -19 -8 -19 -19v-106c0 -12 7 -19 19 -19h462c105 0 192 -87 192 -192v-145zM620 953l-118 -67
l-119 69v96l119 -69l118 67v-96z" />
    <glyph glyph-name="guilsinglleft" unicode="&#x2039;" horiz-adv-x="391" 
d="M361 224h-192l-119 209l111 195h192l-110 -195z" />
    <glyph glyph-name="OE" unicode="&#x152;" horiz-adv-x="1506" 
d="M1451 0h-529c-43 0 -81 13 -116 38c-30 -27 -72 -38 -115 -38h-385c-159 0 -241 148 -241 433c0 294 75 432 240 432h385c46 0 88 -12 122 -36c33 24 70 36 109 36h530v-192h-520c-10 0 -20 -9 -20 -19v-125h492v-192h-492v-125c0 -13 9 -20 19 -20h521v-192zM734 440
c0 132 -12 233 -62 233h-346c-43 0 -65 -81 -65 -240c0 -168 20 -241 64 -241h346c44 0 63 75 63 248z" />
    <glyph glyph-name="quoteleft" unicode="&#x2018;" horiz-adv-x="264" 
d="M244 673h-97v-96l-97 96v192h194v-192z" />
    <glyph glyph-name="quoteright" unicode="&#x2019;" horiz-adv-x="263" 
d="M213 673l-97 -96v96h-96v192h193v-192z" />
    <glyph glyph-name="quotedblleft" unicode="&#x201c;" horiz-adv-x="551" 
d="M531 673h-96v-96l-96 96v192h192v-192zM243 673h-97v-96l-96 96v192h193v-192z" />
    <glyph glyph-name="quotedblright" unicode="&#x201d;" horiz-adv-x="551" 
d="M501 673l-96 -96v96h-96v192h192v-192zM213 673l-97 -96v96h-96v192h193v-192z" />
    <glyph glyph-name="bullet" unicode="&#x2022;" horiz-adv-x="484" 
d="M434 433c0 -107 -85 -193 -192 -193c-108 0 -192 84 -192 193c0 107 86 192 192 192c105 0 192 -87 192 -192z" />
    <glyph glyph-name="endash" unicode="&#x2013;" horiz-adv-x="580" 
d="M530 337h-480v192h480v-192z" />
    <glyph glyph-name="emdash" unicode="&#x2014;" horiz-adv-x="965" 
d="M915 337h-865v192h865v-192z" />
    <glyph glyph-name="tilde" unicode="&#x2dc;" horiz-adv-x="356" 
d="M356 954c-25 -40 -75 -69 -119 -69c-15 0 -42 15 -81 45c-19 15 -36 22 -52 22c-45 0 -66 -22 -104 -69v96c46 47 83 69 119 69c15 0 42 -15 81 -45c19 -15 36 -22 52 -22c45 0 80 23 104 69v-96z" />
    <glyph glyph-name="trademark" unicode="&#x2122;" horiz-adv-x="1293" 
d="M1253 480h-192v174c0 10 -9 19 -19 19h-56c-11 0 -19 -8 -19 -19v-174h-153v174c0 10 -9 19 -19 19h-56c-11 0 -19 -8 -19 -19v-174h-192v193c0 108 84 192 192 192h74c45 0 78 -12 96 -35c18 21 56 35 97 35h74c108 0 192 -84 192 -192v-193zM475 673h-121v-193h-192
v193h-122v192h435v-192z" />
    <glyph glyph-name="scaron" unicode="&#x161;" horiz-adv-x="889" 
d="M829 192c0 -106 -85 -192 -192 -192h-577v192h557c13 0 20 7 20 20v105c0 13 -7 20 -20 20h-365c-108 0 -192 84 -192 192v144c0 108 84 192 192 192h481v-192h-462c-11 0 -19 -8 -19 -19v-106c0 -12 7 -19 19 -19h366c105 0 192 -87 192 -192v-145zM560 953l-118 -67
l-119 69v96l119 -69l118 67v-96z" />
    <glyph glyph-name="guilsinglright" unicode="&#x203a;" horiz-adv-x="392" 
d="M342 433l-118 -209h-194l120 209l-112 195h192z" />
    <glyph glyph-name="oe" unicode="&#x153;" horiz-adv-x="1408" 
d="M1353 0h-1096c-105 0 -192 87 -192 192v481c0 108 84 192 192 192h1096v-192h-519v-144h471v-192h-471v-145h519v-192zM642 212v442c0 13 -7 19 -20 19h-346c-11 0 -19 -8 -19 -19v-442c0 -13 9 -20 19 -20h346c13 0 20 7 20 20z" />
    <glyph glyph-name="Ydieresis" unicode="&#x178;" horiz-adv-x="957" 
d="M912 577c0 -159 -144 -240 -433 -240c-348 0 -434 104 -434 240v288h193v-269c0 -44 80 -63 262 -63c145 0 218 21 218 63v269h194v-288zM574 0h-192v240h192v-240zM664 883h-98v96h98v-96zM392 883h-97v96h97v-96z" />
    <glyph glyph-name="nonbreakingspace" unicode="&#xa0;" horiz-adv-x="348" 
 />
    <glyph glyph-name="exclamdown" unicode="&#xa1;" horiz-adv-x="343" 
d="M268 673h-193v192h193v-192zM268 0h-193v528h193v-528z" />
    <glyph glyph-name="cent" unicode="&#xa2;" 
d="M776 144h-212v-144h-192v144h-115c-109 0 -194 85 -194 193v192c0 108 84 192 193 192h115v144h192v-144h213v-192h-500c-10 0 -20 -9 -20 -19v-154c0 -13 6 -19 19 -19h501v-193z" />
    <glyph glyph-name="sterling" unicode="&#xa3;" 
d="M760 0h-673v192h66c13 0 19 7 19 20v461c0 108 84 192 192 192h279v-192h-260c-11 0 -19 -8 -19 -19v-125h106v-192h-106v-125c0 -13 9 -20 19 -20h377v-192z" />
    <glyph glyph-name="currency" unicode="&#xa4;" 
d="M791 0h-339c-143 0 -259 117 -304 300h-83v97h68v72h-68v96h82c43 188 157 300 305 300h339v-192h-319c-35 0 -84 -46 -115 -108h340v-96h-367l-2 -36l2 -36h367v-97h-340c30 -66 75 -108 115 -108h319v-192z" />
    <glyph glyph-name="yen" unicode="&#xa5;" 
d="M781 637c0 -163 -82 -237 -264 -237v-81h191v-192h-191v-127h-192v127h-182v192h182v80c-189 0 -265 68 -265 238v228h193v-209c0 -44 51 -63 168 -63c119 0 168 18 168 63v209h192v-228z" />
    <glyph glyph-name="brokenbar" unicode="&#xa6;" horiz-adv-x="343" 
d="M268 520h-193v325h193v-325zM268 0h-193v325h193v-325z" />
    <glyph glyph-name="section" unicode="&#xa7;" horiz-adv-x="768" 
d="M462 412c13 0 20 7 20 20s-7 20 -20 20h-156c-13 0 -20 -7 -20 -20c0 -11 9 -20 20 -20h156zM112 532c-30 41 -37 69 -37 150c0 104 83 182 192 182h391v-182h-372c-11 0 -19 -8 -19 -19c0 -12 7 -19 19 -19h196c105 0 192 -87 192 -192v-40c0 -29 -6 -55 -18 -79
c30 -40 37 -70 37 -151c0 -105 -82 -182 -192 -182h-391v182h372c13 0 19 6 19 19c0 10 -9 19 -19 19h-196c-107 0 -192 85 -192 192v40c0 28 6 55 18 80z" />
    <glyph glyph-name="dieresis" unicode="&#xa8;" horiz-adv-x="369" 
d="M369 883h-98v96h98v-96zM97 883h-97v96h97v-96z" />
    <glyph glyph-name="copyright" unicode="&#xa9;" horiz-adv-x="957" 
d="M907 427c0 -237 -188 -428 -428 -428c-239 0 -429 189 -429 428c0 240 191 428 428 428c239 0 429 -189 429 -428zM842 427c0 203 -161 364 -363 364c-204 0 -365 -161 -365 -364c0 -204 160 -364 364 -364c203 0 364 161 364 364zM653 150h-188c-184 0 -241 65 -241 273
c0 219 53 282 240 282h190v-192h-169c-53 0 -65 -17 -65 -90c0 -70 11 -81 64 -81h169v-192z" />
    <glyph glyph-name="ordfeminine" unicode="&#xaa;" horiz-adv-x="658" 
d="M658 370h-414l90 192h23c-11 27 -16 34 -28 34c-9 0 -15 -4 -18 -11l-100 -215h-211l196 422c27 58 71 87 133 87c58 0 105 -31 132 -87z" />
    <glyph glyph-name="guillemotleft" unicode="&#xab;" horiz-adv-x="723" 
d="M693 224h-193l-118 209l111 195h192l-111 -195zM361 224h-192l-119 209l111 195h192l-110 -195z" />
    <glyph glyph-name="logicalnot" unicode="&#xac;" horiz-adv-x="974" 
d="M262 641c0 15 -8 23 -24 23h-32v-47h29c18 0 27 8 27 24zM276 641c0 -22 -15 -38 -35 -38h-34v-58h-16v133h45c23 0 40 -16 40 -37zM593 641c0 15 -8 23 -24 23h-31v-47h29c17 0 26 8 26 24zM618 546h-17l-30 57h-32v-58h-18v133h47c23 0 40 -16 40 -37
c0 -19 -8 -30 -23 -34zM324 597l-16 61l-19 -61h35zM796 597v34c0 14 -10 30 -25 30c-16 0 -28 -13 -28 -30v-34c0 -24 10 -37 27 -37s26 17 26 37zM163 545h-17v15h17v-15zM141 579c0 -23 -14 -39 -37 -39c-26 0 -39 13 -39 40h14c0 -17 8 -26 24 -26c15 0 22 8 22 24v100
h16v-99zM357 545h-15l-13 38h-43l-12 -38h-13l38 133h18zM433 662h-41v-117h-17v117h-40v16h98v-16zM513 545h-72v133h69v-16h-53v-40h49v-15h-49v-47h56v-15zM708 650l-12 -5c-6 13 -19 23 -29 23c-15 0 -27 -9 -27 -21c0 -10 12 -19 36 -26c25 -7 37 -20 37 -38
c0 -25 -17 -43 -41 -43c-29 0 -46 13 -53 40l15 3c0 -15 16 -28 35 -28c17 0 26 8 26 25c0 11 -12 20 -36 27s-36 19 -36 37c0 21 19 39 42 39s38 -11 43 -33zM815 590c0 -27 -21 -51 -44 -51c-29 0 -47 23 -47 51v49c0 20 24 43 46 43c21 0 45 -23 45 -43v-49zM909 545h-16
l-49 110v-110h-18v133h24l42 -93v93h17v-133zM940 120h-88v19c26 18 65 49 65 67c0 11 -6 16 -18 16c-21 0 -27 -1 -29 -14h-19c0 18 22 35 46 35s43 -17 43 -38c0 -20 -23 -46 -57 -64h57v-21zM821 147h-17v-27h-22v27h-51v16l49 80h24v-75h17v-21zM693 154
c0 -22 -17 -37 -43 -37c-27 0 -43 15 -43 37c0 12 5 21 16 28c-9 6 -14 15 -14 27c0 20 17 34 41 34s41 -13 41 -34c0 -12 -5 -21 -14 -27c11 -7 16 -16 16 -28zM580 120h-88v19c26 18 65 49 65 67c0 11 -6 16 -18 16c-21 0 -27 -1 -29 -14h-19c0 18 22 35 46 35
s43 -17 43 -38c0 -20 -23 -46 -57 -64h57v-21zM460 161h-80v22h80v-22zM360 120h-88v19c26 18 65 49 65 67c0 11 -6 16 -18 16c-21 0 -27 -1 -29 -14h-19c0 18 22 35 46 35s43 -17 43 -38c0 -20 -23 -46 -57 -64h57v-21zM240 120h-88v19c26 18 65 49 65 67
c0 11 -6 16 -18 16c-21 0 -27 -1 -29 -14h-19c0 18 22 35 46 35s43 -17 43 -38c0 -20 -23 -46 -57 -64h57v-21zM124 160c0 -27 -16 -43 -46 -43c-12 0 -27 3 -44 10l8 20c14 -8 15 -8 32 -9c19 0 28 8 28 23c0 11 -11 20 -25 20l-35 -3v62h77v-21h-56v-20c40 6 61 -6 61 -39
zM676 351c0 -20 -11 -49 -27 -71h-21c18 31 25 51 25 71c0 22 -3 32 -25 72h21c16 -22 27 -51 27 -72zM611 327h-17v-27h-22v27h-51v16l49 80h24v-75h17v-21zM494 299h-22v99l-11 -2l18 27h15v-124zM434 340c0 -27 -16 -43 -46 -43c-12 0 -27 3 -44 10l8 20
c14 -8 15 -8 32 -9c19 0 28 8 28 23c0 11 -11 20 -25 20l-35 -3v62h77v-21h-56v-20c40 6 61 -6 61 -39zM332 280h-21c-18 22 -27 47 -27 71c0 20 12 51 27 72h21c-19 -34 -25 -52 -25 -72c0 -21 4 -34 25 -71zM782 168v44l-25 -44h25zM669 208c0 9 -6 14 -19 14
s-19 -5 -19 -14c0 -10 7 -16 19 -16c13 0 19 5 19 16zM671 154c0 10 -8 16 -21 16c-14 0 -21 -5 -21 -16c0 -9 9 -16 21 -16c14 0 21 5 21 16zM572 348v44l-25 -44h25z" />
    <glyph glyph-name="registered" unicode="&#xae;" horiz-adv-x="957" 
d="M715 150h-178v97c0 13 -7 20 -20 20h-115v-117h-160c69 -58 147 -87 236 -87c88 0 169 30 237 87zM907 427c0 -237 -188 -428 -428 -428c-239 0 -429 189 -429 428c0 240 191 428 428 428c239 0 429 -189 429 -428zM537 494c0 13 -7 19 -20 19h-116v-54h115
c15 0 16 2 21 35zM209 182l1 490c-62 -69 -96 -155 -96 -245c0 -95 32 -176 95 -245zM843 427c0 202 -162 364 -364 364c-90 0 -169 -29 -236 -86h293c107 0 193 -85 193 -192v-54c0 -42 -13 -77 -37 -96c20 -16 36 -60 36 -96v-105c70 67 115 166 115 265z" />
    <glyph glyph-name="macron" unicode="&#xaf;" horiz-adv-x="1" 
d="M265 673h-530v192h530v-192z" />
    <glyph glyph-name="degree" unicode="&#xb0;" horiz-adv-x="678" 
d="M628 500c0 -108 -84 -192 -192 -192h-192c-108 0 -194 85 -194 192v173c0 108 84 192 193 192h192c107 0 193 -85 193 -192v-173zM436 654c0 10 -9 19 -19 19h-154c-10 0 -20 -9 -20 -19v-135c0 -12 7 -19 19 -19h154c11 0 19 8 19 19z" />
    <glyph glyph-name="plusminus" unicode="&#xb1;" 
d="M684 440h-167v-155h-192v155h-168v193h167v157h192v-157h168v-193zM683 27h-524v192h524v-192z" />
    <glyph glyph-name="twosuperior" unicode="&#xb2;" horiz-adv-x="504" 
d="M458 370h-413c0 75 13 93 180 284c0 10 -9 19 -19 19h-161v192h180c107 0 193 -85 193 -192c0 -22 -1 -24 -51 -111h91v-192z" />
    <glyph glyph-name="threesuperior" unicode="&#xb3;" horiz-adv-x="414" 
d="M369 538c0 -113 -63 -168 -193 -168h-131v192h111c13 0 20 7 20 20c0 15 -11 33 -23 36c16 5 23 23 23 36s-6 19 -19 19h-112v192h130c132 0 194 -48 194 -151c0 -42 -13 -77 -37 -96c28 -23 37 -42 37 -80z" />
    <glyph glyph-name="acute" unicode="&#xb4;" horiz-adv-x="188" 
d="M188 1001l-188 -108v96l188 108v-96z" />
    <glyph glyph-name="paragraph" unicode="&#xb6;" horiz-adv-x="765" 
d="M695 90h-193v675h193v-675zM436 90h-191v147c-109 0 -195 85 -195 192v144c0 107 86 192 192 192h195v-192h-174c-11 0 -21 -9 -21 -19v-106c0 -13 7 -19 20 -19h174v-339z" />
    <glyph glyph-name="periodcentered" unicode="&#xb7;" horiz-adv-x="294" 
d="M244 337h-194v192h194v-192z" />
    <glyph glyph-name="cedilla" unicode="&#xb8;" horiz-adv-x="204" 
d="M204 74l-108 -187h-96l108 187h96z" />
    <glyph glyph-name="onesuperior" unicode="&#xb9;" horiz-adv-x="313" 
d="M273 370h-193v381h-52l52 114h193v-495z" />
    <glyph glyph-name="ordmasculine" unicode="&#xba;" horiz-adv-x="598" 
d="M553 564c0 -108 -84 -192 -192 -192h-122c-108 0 -194 85 -194 192v109c0 108 84 192 193 192h122c107 0 193 -85 193 -192v-109zM361 654c0 10 -9 19 -19 19h-84c-10 0 -20 -9 -20 -19v-71c0 -12 7 -19 19 -19h84c11 0 19 8 19 19z" />
    <glyph glyph-name="guillemotright" unicode="&#xbb;" horiz-adv-x="724" 
d="M674 433l-119 -209h-193l119 209l-111 195h192zM341 433l-117 -209h-194l120 209l-112 195h192z" />
    <glyph glyph-name="onequarter" unicode="&#xbc;" horiz-adv-x="1131" 
d="M1086 120h-66v-120h-192v120h-275c0 136 2 146 59 377h196l-44 -184h63v76h192v-76h67v-193zM769 865l-491 -865h-193l491 865h193zM273 400h-193v381h-52l52 114h193v-495z" />
    <glyph glyph-name="onehalf" unicode="&#xbd;" horiz-adv-x="1078" 
d="M1033 0h-414c0 76 14 93 181 284c0 10 -9 19 -19 19h-162v192h180c106 0 194 -87 194 -192c0 -19 -9 -40 -26 -65s-26 -40 -26 -46h92v-192zM769 865l-491 -865h-193l491 865h193zM273 400h-193v381h-52l52 114h193v-495z" />
    <glyph glyph-name="threequarters" unicode="&#xbe;" horiz-adv-x="1205" 
d="M1160 120h-66v-120h-192v120h-275c0 129 2 140 60 377h195l-43 -184h63v76h192v-76h66v-193zM843 865l-491 -865h-192l491 865h192zM388 568c0 -113 -63 -168 -193 -168h-130v192h111c13 0 19 7 19 20s-7 32 -22 36c12 4 22 19 22 36c0 13 -6 19 -19 19h-111v192h130
c132 0 193 -48 193 -151c0 -42 -13 -78 -36 -96c26 -21 36 -43 36 -80z" />
    <glyph glyph-name="questiondown" unicode="&#xbf;" horiz-adv-x="754" 
d="M436 673h-193v192h193v-192zM724 192c0 -108 -84 -192 -192 -192h-288c-108 0 -194 85 -194 192v48h193c0 -42 0 -48 19 -48h250c5 0 20 5 20 19v58c0 10 -9 19 -19 19h-77c-107 0 -193 86 -193 192v97h192v-77c0 -13 9 -20 19 -20h77c107 0 193 -85 193 -192v-96z" />
    <glyph glyph-name="Agrave" unicode="&#xc0;" horiz-adv-x="984" 
d="M597 893l-188 108v96l188 -108v-96zM994 0h-697l90 192h307l-184 393c-4 7 -10 11 -17 11c-9 0 -15 -4 -18 -11l-273 -585h-212l369 792c27 58 71 87 133 87c58 0 105 -31 132 -87z" />
    <glyph glyph-name="Aacute" unicode="&#xc1;" horiz-adv-x="984" 
d="M548 1001l-188 -108v96l188 108v-96zM994 0h-697l90 192h307l-184 393c-4 7 -10 11 -17 11c-9 0 -15 -4 -18 -11l-273 -585h-212l369 792c27 58 71 87 133 87c58 0 105 -31 132 -87z" />
    <glyph glyph-name="Acircumflex" unicode="&#xc2;" horiz-adv-x="984" 
d="M608 895l-118 67l-120 -69v96l119 69l119 -67v-96zM994 0h-697l90 192h307l-184 393c-4 7 -10 11 -17 11c-9 0 -15 -4 -18 -11l-273 -585h-212l369 792c27 58 71 87 133 87c58 0 105 -31 132 -87z" />
    <glyph glyph-name="Atilde" unicode="&#xc3;" horiz-adv-x="984" 
d="M707 954c-25 -40 -75 -69 -119 -69c-15 0 -42 15 -81 45c-19 15 -36 22 -52 22c-38 0 -56 -14 -105 -69v96c46 47 83 69 119 69c15 0 42 -15 81 -45c19 -15 36 -22 52 -22c45 0 80 23 105 69v-96zM994 0h-697l90 192h307l-184 393c-4 7 -10 11 -17 11
c-9 0 -15 -4 -18 -11l-273 -585h-212l369 792c27 58 71 87 133 87c58 0 105 -31 132 -87z" />
    <glyph glyph-name="Adieresis" unicode="&#xc4;" horiz-adv-x="984" 
d="M742 883h-98v96h98v-96zM337 883h-97v96h97v-96zM994 0h-697l90 192h307l-184 393c-4 7 -10 11 -17 11c-9 0 -15 -4 -18 -11l-273 -585h-212l369 792c27 58 71 87 133 87c58 0 105 -31 132 -87z" />
    <glyph glyph-name="Aring" unicode="&#xc5;" horiz-adv-x="984" 
d="M994 0h-697l90 192h307l-184 393c-3 7 -9 11 -17 11c-9 0 -15 -4 -18 -11l-273 -585h-212l369 792c12 26 24 42 42 56c-32 17 -53 50 -53 85v87c0 54 42 96 97 96h96c53 0 97 -43 97 -96v-87c0 -40 -18 -69 -54 -86c16 -14 29 -32 40 -55zM542 943v67c0 7 -3 10 -10 10
h-77c-7 0 -10 -3 -10 -10v-67c0 -7 3 -10 9 -10h77c7 0 11 3 11 10z" />
    <glyph glyph-name="AE" unicode="&#xc6;" horiz-adv-x="1286" 
d="M1221 0h-924l90 192h123v393c-3 7 -9 11 -17 11c-9 0 -15 -4 -18 -11l-273 -585h-212l369 783c27 57 72 86 133 86c51 0 79 -7 102 -32c34 18 74 28 107 28h520v-192h-500c-10 0 -20 -9 -20 -19v-125h520v-192h-520v-125c0 -13 9 -20 19 -20h501v-192z" />
    <glyph glyph-name="Ccedilla" unicode="&#xc7;" horiz-adv-x="849" 
d="M829 0h-288l-68 -117h-96l68 117h-145c-159 0 -240 144 -240 433c0 294 75 432 240 432h529v-192h-509c-43 0 -64 -79 -64 -240c0 -168 20 -241 64 -241h509v-192z" />
    <glyph glyph-name="Egrave" unicode="&#xc8;" horiz-adv-x="1001" 
d="M636 893l-188 108v96l188 -108v-96zM936 0h-673c-107 0 -193 86 -193 192v481c0 108 84 192 192 192h674v-192h-654c-10 0 -20 -9 -20 -19v-125h674v-192h-674v-125c0 -13 9 -20 19 -20h655v-192z" />
    <glyph glyph-name="Eacute" unicode="&#xc9;" horiz-adv-x="1001" 
d="M627 1001l-188 -108v96l188 108v-96zM936 0h-673c-107 0 -193 86 -193 192v481c0 108 84 192 192 192h674v-192h-654c-10 0 -20 -9 -20 -19v-125h674v-192h-674v-125c0 -13 9 -20 19 -20h655v-192z" />
    <glyph glyph-name="Ecircumflex" unicode="&#xca;" horiz-adv-x="1001" 
d="M657 895l-118 67l-120 -69v96l119 69l119 -67v-96zM936 0h-673c-107 0 -193 86 -193 192v481c0 108 84 192 192 192h674v-192h-654c-10 0 -20 -9 -20 -19v-125h674v-192h-674v-125c0 -13 9 -20 19 -20h655v-192z" />
    <glyph glyph-name="Edieresis" unicode="&#xcb;" horiz-adv-x="1001" 
d="M716 883h-98v96h98v-96zM444 883h-97v96h97v-96zM936 0h-673c-107 0 -193 86 -193 192v481c0 108 84 192 192 192h674v-192h-654c-10 0 -20 -9 -20 -19v-125h674v-192h-674v-125c0 -13 9 -20 19 -20h655v-192z" />
    <glyph glyph-name="Igrave" unicode="&#xcc;" horiz-adv-x="342" 
d="M262 893l-187 108v96l187 -108v-96zM267 0h-192v865h192v-865z" />
    <glyph glyph-name="Iacute" unicode="&#xcd;" horiz-adv-x="342" 
d="M262 1001l-188 -108v96l188 108v-96zM268 0h-193v865h193v-865z" />
    <glyph glyph-name="Icircumflex" unicode="&#xce;" horiz-adv-x="342" 
d="M290 895l-118 67l-120 -69v96l119 69l119 -67v-96zM266 0h-193v865h193v-865z" />
    <glyph glyph-name="Idieresis" unicode="&#xcf;" horiz-adv-x="342" 
d="M340 883h-97v96h97v-96zM99 883h-97v96h97v-96zM269 0h-192v865h192v-865z" />
    <glyph glyph-name="Eth" unicode="&#xd0;" horiz-adv-x="1051" 
d="M991 433c0 -286 -82 -433 -240 -433h-625v337h-76v192h75v336h625c165 0 241 -137 241 -432zM794 440c0 163 -19 233 -63 233h-414v-144h214v-192h-214v-145h413c45 0 64 75 64 248z" />
    <glyph glyph-name="Ntilde" unicode="&#xd1;" horiz-adv-x="909" 
d="M649 974c-25 -40 -75 -69 -119 -69c-15 0 -42 15 -81 45c-19 15 -36 22 -52 22c-45 0 -66 -22 -104 -69v96c46 47 83 69 119 69c15 0 42 -15 81 -45c19 -15 36 -22 52 -22c45 0 80 23 104 69v-96zM839 -1h-192v614c0 53 -56 74 -193 74c-126 0 -192 -16 -192 -74v-614
h-192v634c0 174 117 250 384 250c260 0 385 -81 385 -250v-634z" />
    <glyph glyph-name="Ograve" unicode="&#xd2;" horiz-adv-x="995" 
d="M598 893l-187 108v96l187 -108v-96zM930 433c0 -286 -82 -433 -240 -433h-385c-159 0 -240 144 -240 433c0 294 75 432 240 432h385c165 0 240 -134 240 -432zM734 433c0 138 -12 240 -63 240h-346c-50 0 -64 -58 -64 -240c0 -168 20 -241 64 -241h346c42 0 63 78 63 241
z" />
    <glyph glyph-name="Oacute" unicode="&#xd3;" horiz-adv-x="995" 
d="M600 1001l-187 -108v96l187 108v-96zM930 433c0 -286 -82 -433 -240 -433h-385c-159 0 -240 144 -240 433c0 294 75 432 240 432h385c165 0 240 -134 240 -432zM734 433c0 138 -12 240 -63 240h-346c-50 0 -64 -58 -64 -240c0 -168 20 -241 64 -241h346
c42 0 63 78 63 241z" />
    <glyph glyph-name="Ocircumflex" unicode="&#xd4;" horiz-adv-x="995" 
d="M620 895l-118 67l-119 -69v96l119 69l118 -67v-96zM930 433c0 -286 -82 -433 -240 -433h-385c-159 0 -240 144 -240 433c0 294 75 432 240 432h385c165 0 240 -134 240 -432zM734 433c0 138 -12 240 -63 240h-346c-50 0 -64 -58 -64 -240c0 -168 20 -241 64 -241h346
c42 0 63 78 63 241z" />
    <glyph glyph-name="Otilde" unicode="&#xd5;" horiz-adv-x="995" 
d="M669 954c-25 -40 -75 -69 -119 -69c-15 0 -42 15 -81 45c-19 15 -36 22 -52 22c-45 0 -66 -22 -104 -69v96c46 47 83 69 119 69c15 0 42 -15 81 -45c19 -15 36 -22 52 -22c45 0 80 23 104 69v-96zM930 433c0 -286 -82 -433 -240 -433h-385c-159 0 -240 144 -240 433
c0 294 75 432 240 432h385c165 0 240 -134 240 -432zM734 433c0 138 -12 240 -63 240h-346c-50 0 -64 -58 -64 -240c0 -168 20 -241 64 -241h346c42 0 63 78 63 241z" />
    <glyph glyph-name="Odieresis" unicode="&#xd6;" horiz-adv-x="995" 
d="M719 898h-97v96h97v-96zM378 898h-97v96h97v-96zM930 433c0 -286 -82 -433 -240 -433h-385c-159 0 -240 144 -240 433c0 294 75 432 240 432h385c165 0 240 -134 240 -432zM734 433c0 138 -12 240 -63 240h-346c-50 0 -64 -58 -64 -240c0 -168 20 -241 64 -241h346
c42 0 63 78 63 241z" />
    <glyph glyph-name="multiply" unicode="&#xd7;" 
d="M675 524l-119 -118l110 -110l-135 -135l-110 109l-118 -118l-138 137l120 118l-112 111l135 135l111 -111l118 119z" />
    <glyph glyph-name="Oslash" unicode="&#xd8;" horiz-adv-x="995" 
d="M592 673h-271c-45 0 -64 -72 -64 -240c0 -92 2 -118 12 -167zM938 865l-76 -96c44 -72 64 -181 64 -336c0 -289 -81 -433 -240 -433h-628l74 93c-50 77 -71 179 -71 340c0 302 72 432 240 432h637zM730 433c0 77 -2 111 -10 157l-315 -398h262c46 0 63 74 63 241z" />
    <glyph glyph-name="Ugrave" unicode="&#xd9;" horiz-adv-x="1006" 
d="M583 893l-188 108v96l188 -108v-96zM936 232c0 -162 -153 -250 -433 -250c-290 0 -433 83 -433 250v633h192v-614c0 -61 144 -73 240 -73c156 0 241 26 241 73v614h193v-633z" />
    <glyph glyph-name="Uacute" unicode="&#xda;" horiz-adv-x="1006" 
d="M613 1001l-188 -108v96l188 108v-96zM936 232c0 -162 -153 -250 -433 -250c-290 0 -433 83 -433 250v633h192v-614c0 -61 144 -73 240 -73c156 0 241 26 241 73v614h193v-633z" />
    <glyph glyph-name="Ucircumflex" unicode="&#xdb;" horiz-adv-x="1006" 
d="M625 895l-118 67l-120 -69v96l119 69l119 -67v-96zM936 232c0 -162 -153 -250 -433 -250c-290 0 -433 83 -433 250v633h192v-614c0 -61 144 -73 240 -73c156 0 241 26 241 73v614h193v-633z" />
    <glyph glyph-name="Udieresis" unicode="&#xdc;" horiz-adv-x="1006" 
d="M672 883h-98v96h98v-96zM430 883h-97v96h97v-96zM936 232c0 -162 -153 -250 -433 -250c-290 0 -433 83 -433 250v633h192v-614c0 -61 144 -73 240 -73c156 0 241 26 241 73v614h193v-633z" />
    <glyph glyph-name="Yacute" unicode="&#xdd;" horiz-adv-x="958" 
d="M912 577c0 -159 -144 -240 -433 -240c-348 0 -434 104 -434 240v288h193v-269c0 -44 80 -63 262 -63c145 0 218 21 218 63v269h194v-288zM574 0h-192v240h192v-240zM588 1001l-188 -108v96l188 108v-96z" />
    <glyph glyph-name="Thorn" unicode="&#xde;" horiz-adv-x="967" 
d="M922 359c0 -106 -85 -192 -192 -192h-462v-167h-193v359h634c11 0 21 9 21 19v106c0 13 -7 19 -20 19h-635v362h192v-170h462c107 0 193 -85 193 -192v-144z" />
    <glyph glyph-name="germandbls" unicode="&#xdf;" horiz-adv-x="1004" 
d="M934 191c0 -108 -84 -192 -192 -192h-373v192h354c11 0 19 8 19 19v106c0 10 -9 19 -19 19h-461v-450h-192v787c0 110 82 192 190 192h482c105 0 192 -87 192 -192v-145c0 -39 -13 -77 -35 -96c21 -16 35 -56 35 -96v-144zM742 547v105c0 5 -5 20 -19 20h-443
c-11 0 -19 -8 -19 -19v-126h462c13 0 19 7 19 20z" />
    <glyph glyph-name="agrave" unicode="&#xe0;" horiz-adv-x="984" 
d="M648 288l-138 306c-4 8 -10 12 -17 12c-8 0 -14 -4 -18 -12l-139 -306h312zM994 0h-211l-67 144h-447l-67 -144h-212l369 792c27 58 71 87 133 87c59 0 106 -31 132 -87zM596 893l-187 108v96l187 -108v-96z" />
    <glyph glyph-name="aacute" unicode="&#xe1;" horiz-adv-x="984" 
d="M648 288l-138 306c-4 8 -10 12 -17 12c-8 0 -14 -4 -18 -12l-139 -306h312zM994 0h-211l-67 144h-447l-67 -144h-212l369 792c27 58 71 87 133 87c59 0 106 -31 132 -87zM567 1001l-187 -108v96l187 108v-96z" />
    <glyph glyph-name="acircumflex" unicode="&#xe2;" horiz-adv-x="984" 
d="M648 288l-138 306c-4 8 -10 12 -17 12c-8 0 -14 -4 -18 -12l-139 -306h312zM994 0h-211l-67 144h-447l-67 -144h-212l369 792c27 58 71 87 133 87c59 0 106 -31 132 -87zM607 895l-117 67l-120 -69v96l119 69l118 -67v-96z" />
    <glyph glyph-name="atilde" unicode="&#xe3;" horiz-adv-x="984" 
d="M648 288l-138 306c-4 8 -10 12 -17 12c-8 0 -14 -4 -18 -12l-139 -306h312zM994 0h-211l-67 144h-447l-67 -144h-212l369 792c27 58 71 87 133 87c59 0 106 -31 132 -87zM706 954c-23 -39 -71 -69 -118 -69c-15 0 -42 15 -81 45c-19 15 -36 22 -52 22
c-38 0 -56 -14 -105 -69v96c46 47 83 69 119 69c15 0 42 -15 81 -45c19 -15 36 -22 52 -22c45 0 80 23 104 69v-96z" />
    <glyph glyph-name="adieresis" unicode="&#xe4;" horiz-adv-x="984" 
d="M648 288l-138 306c-4 8 -10 12 -17 12c-8 0 -14 -4 -18 -12l-139 -306h312zM994 0h-211l-67 144h-447l-67 -144h-212l369 792c27 58 71 87 133 87c59 0 106 -31 132 -87zM337 883h-97v96h97v-96zM742 883h-98v96h98v-96z" />
    <glyph glyph-name="aring" unicode="&#xe5;" horiz-adv-x="984" 
d="M542 943v67c0 7 -3 10 -10 10h-77c-7 0 -10 -3 -10 -10v-67c0 -7 3 -10 9 -10h77c7 0 11 3 11 10zM994 0h-211l-67 144h-447l-67 -144h-212l369 792c12 26 24 42 42 56c-32 17 -53 50 -53 85v87c0 54 42 96 97 96h96c53 0 97 -43 97 -96v-87c0 -25 -10 -65 -55 -86
c16 -13 34 -40 41 -55zM647 288l-137 306c-4 8 -10 12 -17 12c-8 0 -14 -4 -18 -12l-139 -306h311z" />
    <glyph glyph-name="ae" unicode="&#xe6;" horiz-adv-x="1343" 
d="M1278 0h-721v144h-289l-67 -144h-211l369 792c24 51 64 73 135 73h784v-192h-529v-144h529v-192h-529v-145h529v-192zM557 288v318h-65c-9 0 -15 -4 -18 -12l-138 -306h221z" />
    <glyph glyph-name="ccedilla" unicode="&#xe7;" horiz-adv-x="855" 
d="M835 0h-304l-68 -117h-97l69 117h-177c-107 0 -193 86 -193 192v481c0 108 84 192 192 192h578v-192h-558c-10 0 -20 -9 -20 -19v-442c0 -13 9 -20 19 -20h559v-192z" />
    <glyph glyph-name="egrave" unicode="&#xe8;" horiz-adv-x="899" 
d="M576 893l-187 108v96l187 -108v-96zM844 0h-769v865h769v-192h-577v-144h529v-192h-529v-145h577v-192z" />
    <glyph glyph-name="eacute" unicode="&#xe9;" horiz-adv-x="899" 
d="M547 1001l-187 -108v96l187 108v-96zM844 0h-769v865h769v-192h-577v-144h529v-192h-529v-145h577v-192z" />
    <glyph glyph-name="ecircumflex" unicode="&#xea;" horiz-adv-x="899" 
d="M579 895l-118 67l-119 -69v96l119 69l118 -67v-96zM844 0h-769v865h769v-192h-577v-144h529v-192h-529v-145h577v-192z" />
    <glyph glyph-name="edieresis" unicode="&#xeb;" horiz-adv-x="899" 
d="M642 883h-97v96h97v-96zM371 883h-97v96h97v-96zM844 0h-769v865h769v-192h-577v-144h529v-192h-529v-145h577v-192z" />
    <glyph glyph-name="igrave" unicode="&#xec;" horiz-adv-x="342" 
d="M264 893l-187 108v96l187 -108v-96zM267 0h-192v865h192v-865z" />
    <glyph glyph-name="iacute" unicode="&#xed;" horiz-adv-x="342" 
d="M262 1001l-188 -108v96l188 108v-96zM268 0h-193v865h193v-865z" />
    <glyph glyph-name="icircumflex" unicode="&#xee;" horiz-adv-x="342" 
d="M290 895l-118 67l-120 -69v96l119 69l119 -67v-96zM271 0h-193v865h193v-865z" />
    <glyph glyph-name="idieresis" unicode="&#xef;" horiz-adv-x="342" 
d="M340 883h-97v96h97v-96zM99 883h-97v96h97v-96zM269 0h-192v865h192v-865z" />
    <glyph glyph-name="eth" unicode="&#xf0;" horiz-adv-x="982" 
d="M917 192c0 -106 -85 -192 -192 -192h-577v337h-98v192h98v336h577c105 0 192 -87 192 -192v-481zM725 212v442c0 13 -7 19 -20 19h-365v-144h190v-192h-190v-145h365c13 0 20 7 20 20z" />
    <glyph glyph-name="ntilde" unicode="&#xf1;" horiz-adv-x="1015" 
d="M710 954c-25 -40 -75 -69 -119 -69c-15 0 -42 15 -81 45c-19 15 -36 22 -52 22c-45 0 -66 -22 -104 -69v96c46 47 83 69 119 69c15 0 42 -15 81 -45c19 -15 36 -22 52 -22c45 0 80 23 104 69v-96zM940 0h-192c-53 0 -91 24 -133 87l-331 494c-5 7 -11 11 -17 11v-592
h-192v865h192c55 0 92 -24 133 -86l330 -494c6 -8 12 -12 18 -12v592h192v-865z" />
    <glyph glyph-name="ograve" unicode="&#xf2;" horiz-adv-x="995" 
d="M582 893l-187 108v96l187 -108v-96zM930 192c0 -106 -85 -192 -192 -192h-481c-107 0 -192 85 -192 192v481c0 108 84 192 192 192h481c108 0 192 -84 192 -192v-481zM738 212v442c0 10 -9 19 -19 19h-443c-11 0 -19 -8 -19 -19v-442c0 -13 9 -20 19 -20h443
c13 0 19 7 19 20z" />
    <glyph glyph-name="oacute" unicode="&#xf3;" horiz-adv-x="995" 
d="M597 1001l-187 -108v96l187 108v-96zM930 192c0 -106 -85 -192 -192 -192h-481c-107 0 -192 85 -192 192v481c0 108 84 192 192 192h481c108 0 192 -84 192 -192v-481zM738 212v442c0 10 -9 19 -19 19h-443c-11 0 -19 -8 -19 -19v-442c0 -13 9 -20 19 -20h443
c13 0 19 7 19 20z" />
    <glyph glyph-name="ocircumflex" unicode="&#xf4;" horiz-adv-x="995" 
d="M615 895l-118 67l-119 -69v96l119 69l118 -67v-96zM930 192c0 -106 -85 -192 -192 -192h-481c-107 0 -192 85 -192 192v481c0 108 84 192 192 192h481c108 0 192 -84 192 -192v-481zM738 212v442c0 10 -9 19 -19 19h-443c-11 0 -19 -8 -19 -19v-442c0 -13 9 -20 19 -20
h443c13 0 19 7 19 20z" />
    <glyph glyph-name="otilde" unicode="&#xf5;" horiz-adv-x="995" 
d="M674 954c-25 -40 -75 -69 -119 -69c-15 0 -42 15 -81 45c-19 15 -36 22 -52 22c-45 0 -66 -22 -104 -69v96c46 47 83 69 119 69c15 0 42 -15 81 -45c19 -15 36 -22 52 -22c45 0 80 23 104 69v-96zM930 192c0 -106 -85 -192 -192 -192h-481c-107 0 -192 85 -192 192v481
c0 108 84 192 192 192h481c108 0 192 -84 192 -192v-481zM738 212v442c0 10 -9 19 -19 19h-443c-11 0 -19 -8 -19 -19v-442c0 -13 9 -20 19 -20h443c13 0 19 7 19 20z" />
    <glyph glyph-name="odieresis" unicode="&#xf6;" horiz-adv-x="995" 
d="M716 905h-97v96h97v-96zM375 905h-97v96h97v-96zM930 192c0 -106 -85 -192 -192 -192h-481c-107 0 -192 85 -192 192v481c0 108 84 192 192 192h481c108 0 192 -84 192 -192v-481zM738 212v442c0 10 -9 19 -19 19h-443c-11 0 -19 -8 -19 -19v-442c0 -13 9 -20 19 -20h443
c13 0 19 7 19 20z" />
    <glyph glyph-name="divide" unicode="&#xf7;" 
d="M516 570h-193v192h193v-192zM660 327h-480v192h480v-192zM516 85h-193v192h193v-192z" />
    <glyph glyph-name="oslash" unicode="&#xf8;" horiz-adv-x="995" 
d="M596 673h-315c-10 0 -20 -9 -20 -19v-404zM950 865l-59 -72c29 -35 44 -75 44 -120v-481c0 -106 -85 -192 -192 -192h-680l54 67c-32 36 -48 78 -48 125v481c0 108 84 192 192 192h689zM743 607l-334 -415h314c13 0 19 7 19 20z" />
    <glyph glyph-name="ugrave" unicode="&#xf9;" horiz-adv-x="909" 
d="M546 893l-187 108v96l187 -108v-96zM839 192c0 -106 -85 -192 -192 -192h-385c-107 0 -192 85 -192 192v673h192v-653c0 -13 9 -20 19 -20h346c13 0 20 7 20 20v653h192v-673z" />
    <glyph glyph-name="uacute" unicode="&#xfa;" horiz-adv-x="909" 
d="M566 1001l-187 -108v96l187 108v-96zM839 192c0 -106 -85 -192 -192 -192h-385c-107 0 -192 85 -192 192v673h192v-653c0 -13 9 -20 19 -20h346c13 0 20 7 20 20v653h192v-673z" />
    <glyph glyph-name="ucircumflex" unicode="&#xfb;" horiz-adv-x="909" 
d="M578 895l-118 67l-119 -69v96l119 69l118 -67v-96zM839 192c0 -106 -85 -192 -192 -192h-385c-107 0 -192 85 -192 192v673h192v-653c0 -13 9 -20 19 -20h346c13 0 20 7 20 20v653h192v-673z" />
    <glyph glyph-name="udieresis" unicode="&#xfc;" horiz-adv-x="909" 
d="M624 883h-97v96h97v-96zM383 883h-97v96h97v-96zM839 192c0 -106 -85 -192 -192 -192h-385c-107 0 -192 85 -192 192v673h192v-653c0 -13 9 -20 19 -20h346c13 0 20 7 20 20v653h192v-673z" />
    <glyph glyph-name="yacute" unicode="&#xfd;" horiz-adv-x="801" 
d="M761 577c0 -163 -82 -237 -264 -237v-340h-192v339c-189 0 -265 68 -265 238v288h193v-269c0 -44 51 -63 168 -63c119 0 168 18 168 63v269h192v-288zM503 1001l-188 -108v96l188 108v-96z" />
    <glyph glyph-name="thorn" unicode="&#xfe;" horiz-adv-x="869" 
d="M824 367c0 -108 -84 -192 -193 -192h-365v-175h-191v865h191v-162h365c107 0 193 -85 193 -192v-144zM631 386v106c0 10 -9 19 -19 19h-346v-144h346c11 0 19 8 19 19z" />
    <glyph glyph-name="ydieresis" unicode="&#xff;" horiz-adv-x="801" 
d="M538 883h-97v96h97v-96zM369 883h-97v96h97v-96zM761 577c0 -163 -82 -237 -264 -237v-340h-192v339c-189 0 -265 68 -265 238v288h193v-269c0 -44 51 -63 168 -63c119 0 168 18 168 63v269h192v-288z" />
    <glyph glyph-name="Euro" unicode="&#x20ac;" 
d="M791 0h-339c-143 0 -259 117 -304 300h-83v97h68v72h-68v96h82c43 188 157 300 305 300h339v-192h-319c-35 0 -84 -46 -115 -108h340v-96h-367l-2 -36l2 -36h367v-97h-340c30 -66 75 -108 115 -108h319v-192z" />
  </font>
</defs>
</svg>
